<svg xmlns="http://www.w3.org/2000/svg" viewBox="0 0 23 23"><path d="M1 1h7v7h-7zM15 1h7v7h-7zM2 2v5h5v-5zM11 2h1v1h-1zM16 2v5h5v-5zM3 3h3v3h-3zM9 3h2v2h-1v1h1v1h-1v2h-1zM12 3h1v1h-1zM17 3h3v3h-3zM13 4h1v7h-1v-2h-1v-1h1v-2h-2v-1h2zM11 7h1v1h-1zM1 9h1v1h1v-1h5v1h-1v1h4v2h2v1h1v-1h1v1h1v1h1v1h-1v1h-2v2h-1v-2h-1v-1h1v-1h-2v-1h-1v-2h-3v1h2v1h-3v-1h-1v-1h1v-1h-1v-1h-1v1h1v1h-2v-1h-1v1h-1zM10 9h2v2h-1v-1h-1zM15 9h5v2h1v1h-1v1h1v1h-2v-4h-2v1h-1v-1h-1zM12 11h1v1h-1zM14 11h1v1h-1zM17 11h1v3h-1v-1h-1v-1h1zM2 12h1v2h-2v-1h1zM21 12h1v1h-1zM9 14h1v1h-1zM18 14h1v1h-1zM1 15h7v7h-7zM14 15v1h1v-1zM20 15h2v1h-2zM2 16v5h5v-5zM9 16h2v2h-1v1h3v1h-1v1h-1v-1h-2zM18 16h1v1h-1zM3 17h3v3h-3zM16 17h1v2h-1zM19 17h1v3h1v1h-1v1h-3v-1h-1v-1h1v-1h2zM14 19h1v1h-1zM18 20v1h1v-1zM9 21h1v1h-1zM12 21h1v1h-1zM14 21h1v1h-1z"/></svg>