<svg xmlns="http://www.w3.org/2000/svg" viewBox="0 0 23 23"><path d="M1 1h7v7h-7zM13 1h1v1h-1zM15 1h7v7h-7zM2 2v5h5v-5zM9 2h3v1h2v1h-1v1h1v1h-1v1h-1v-2h-1v-1h-1v-1h-1zM16 2v5h5v-5zM3 3h3v3h-3zM17 3h3v3h-3zM9 5h1v1h-1zM10 6h1v1h-1zM9 7h1v1h-1zM11 7h1v1h-1zM13 7h1v1h-1zM10 8h1v1h-1zM1 9h1v1h-1zM3 9h1v1h-1zM5 9h1v1h-1zM7 9h1v1h-1zM11 9h1v1h-1zM13 9h1v1h-1zM17 9h1v1h-1zM20 9h1v2h-1zM4 10h1v1h-1zM6 10h1v1h-1zM10 10h1v1h-1zM12 10h1v2h1v-2h1v1h1v-1h1v2h2v1h-2v1h-1v1h-1v-1h-1v-1h-1v1h-1zM18 10h1v1h-1zM2 11h1v1h2v1h4v1h-6v-1h-1v1h-1v-2h1zM5 11h1v1h-1zM7 11h3v1h-3zM19 11h1v1h-1zM21 11h1v1h-1zM15 12v1h1v-1zM10 13h1v1h-1zM19 13h3v1h-1v1h-2zM9 14h1v1h-1zM11 14h1v3h-1v-1h-1v-1h1zM1 15h7v7h-7zM13 15h1v1h-1zM17 15h1v1h-1zM2 16v5h5v-5zM15 16h1v2h-1zM19 16h2v1h-1v1h-1zM3 17h3v3h-3zM9 17h2v1h-2zM13 17h1v1h-1zM17 17h1v1h-1zM21 17h1v1h-1zM12 18h1v2h1v-2h1v1h1v-1h1v2h1v-2h1v1h1v1h-1v1h1v1h-2v-1h-1v1h-3v-1h-1v1h-2v-2h1zM20 18h1v1h-1zM9 19h2v1h-2zM21 19h1v1h-1zM15 20v1h1v-1zM9 21h1v1h-1zM21 21h1v1h-1z"/></svg>