<svg xmlns="http://www.w3.org/2000/svg" viewBox="0 0 23 23"><path d="M1 1h7v7h-7zM10 1h1v1h3v2h-1v-1h-3zM15 1h7v7h-7zM2 2v5h5v-5zM16 2v5h5v-5zM3 3h3v3h-3zM9 3h1v1h1v1h-1v1h3v1h-1v2h-1v-2h-1v2h-1zM17 3h3v3h-3zM12 4h1v1h-1zM13 5h1v1h-1zM13 7h1v1h-1zM1 9h1v2h-1zM3 9h5v1h-4v1h-1zM10 9h1v2h1v1h-1v1h-1v-1h-1v-1h1zM12 9h1v1h2v-1h5v1h-1v1h-1v-1h-2v1h1v1h-1v1h-2v2h-1v-2h-1v-1h1v-1h-1zM8 10h1v1h-1zM2 11h1v3h-2v-1h1zM5 11h1v1h1v1h-2zM7 11h1v1h-1zM14 11v1h1v-1zM18 12h1v1h-1zM4 13h1v1h-1zM7 13h1v1h-1zM11 13h1v2h1v1h-1v1h1v1h1v-1h1v1h1v1h1v1h-1v1h-2v1h-1v-1h-2v1h-2v-1h1v-1h1v-1h-1v1h-1v-4h1v2h1v-2h-1v-1h1zM16 13h1v2h-1zM19 13h1v2h1v1h-1v2h-1v1h-1v-1h-1v-1h-1v-1h1v-1h2zM9 14h1v1h-1zM21 14h1v1h-1zM1 15h7v7h-7zM14 15h1v1h-1zM2 16v5h5v-5zM18 16v1h1v-1zM3 17h3v3h-3zM12 19v1h1v-1zM14 19v1h1v-1zM18 20h1v1h-1zM20 20h1v1h-1zM16 21h1v1h-1zM19 21h1v1h-1z"/></svg>