<svg xmlns="http://www.w3.org/2000/svg" viewBox="0 0 23 23"><path d="M1 1h7v7h-7zM11 1h1v1h1v-1h1v2h-1v1h-2v-1h-1v-1h1zM15 1h7v7h-7zM2 2v5h5v-5zM16 2v5h5v-5zM3 3h3v3h-3zM9 3h1v2h3v-1h1v7h-1v-2h-2v-3h-1v3h-1zM17 3h3v3h-3zM12 6v2h1v-2zM1 9h1v1h-1zM3 9h5v1h-1v1h-1v-1h-2v1h1v1h-2v-1h-1v-1h1zM10 9h1v1h1v1h1v1h-1v1h-1v1h-1v1h-1v-5h1zM15 9h5v3h1v1h1v1h-3v-4h-2v1h-1v-1h-1zM1 11h1v1h-1zM7 11h1v1h-1zM10 11v1h1v-1zM14 11h1v1h-1zM17 11h1v3h-1v-1h-1v-1h1zM21 11h1v1h-1zM2 12h1v1h-1zM1 13h1v1h-1zM5 13h1v1h-1zM7 13h1v1h-1zM12 13h1v1h1v-1h1v1h1v1h1v1h-1v1h-2v2h-1v-2h-2v-1h2v-1h-2v-1h1zM18 14h1v1h-1zM1 15h7v7h-7zM10 15h1v1h-1zM14 15v1h1v-1zM21 15h1v1h-1zM2 16v5h5v-5zM9 16h1v2h2v1h-2v1h-1zM18 16h1v1h-1zM3 17h3v3h-3zM16 17h1v2h-1zM19 17h1v3h1v1h-1v1h-3v-1h-1v-1h1v-1h2zM12 19h1v1h-1zM14 19h1v1h-1zM10 20h1v2h-2v-1h1zM18 20v1h1v-1zM12 21h1v1h-1zM14 21h1v1h-1z"/></svg>